<svg xmlns="http://www.w3.org/2000/svg" width="28" height="28" viewBox="0 0 28 28">
    <defs>
        <style>
            .cls-1{fill:none}.cls-2{fill:#84879c}.cls-3{fill:#323c6b;stroke:#323c6b;stroke-width:.4px}.cls-8{fill:#dbe2eb}
        </style>
    </defs>
    <g id="Beauty" transform="translate(-102 -285)">
        <path id="Rectangle_6234" d="M0 0h28v28H0z" class="cls-1" transform="translate(102 285)"/>
        <g id="Group_13184" transform="translate(102 285)">
            <g id="daily-needs-icn">
                <path id="Rectangle_91" d="M0 0h28v28H0z" class="cls-1"/>
            </g>
            <path id="Rectangle_27" d="M0 0h28v28H0z" class="cls-1"/>
        </g>
        <g id="woman" transform="translate(88.475 286)">
            <circle id="Ellipse_870" cx="2.938" cy="2.938" r="2.938" class="cls-2" transform="translate(24.384 .203)"/>
            <path id="Path_12736" d="M49.509 6.283a3.142 3.142 0 1 1 3.142-3.142 3.141 3.141 0 0 1-3.142 3.142zm0-5.877a2.735 2.735 0 1 0 2.735 2.735A2.735 2.735 0 0 0 49.509.406z" class="cls-3" transform="translate(-22.187)"/>
            <ellipse id="Ellipse_871" cx="1.014" cy="1.929" fill="#e8c79c" rx="1.014" ry="1.929" transform="rotate(-13.175 74.082 -72.721)"/>
            <path id="Path_12737" d="M20.791 75.675a1.172 1.172 0 0 1-.853-.472 3.2 3.2 0 0 1-.644-1.347c-.272-1.164.035-2.2.7-2.353a1.066 1.066 0 0 1 1.027.452 3.482 3.482 0 0 1 .664 2.84 1.066 1.066 0 0 1-.72.86.755.755 0 0 1-.174.02zm-.628-3.785a.337.337 0 0 0-.077.009c-.373.087-.628.875-.4 1.865a2.788 2.788 0 0 0 .555 1.174c.214.248.442.366.627.322s.337-.25.419-.567a3.081 3.081 0 0 0-.578-2.472.8.8 0 0 0-.546-.331z" class="cls-3" transform="translate(-.534 -56.963)"/>
            <ellipse id="Ellipse_872" cx="1.929" cy="1.014" fill="#e8c79c" stroke="#323c6b" stroke-width="0.4px" rx="1.929" ry="1.014" transform="rotate(-76.825 28.38 -12.134)"/>
            <path id="Path_12738" d="M92.81 75.674a.756.756 0 0 1-.173-.02 1.067 1.067 0 0 1-.72-.86 3.482 3.482 0 0 1 .664-2.84 1.065 1.065 0 0 1 1.027-.452c.664.155.972 1.189.7 2.353a3.2 3.2 0 0 1-.644 1.347 1.172 1.172 0 0 1-.854.472zm.628-3.785a.8.8 0 0 0-.55.331 3.081 3.081 0 0 0-.578 2.472c.082.317.235.524.419.567s.413-.075.627-.322a2.789 2.789 0 0 0 .555-1.174c.231-.99-.023-1.778-.4-1.865a.338.338 0 0 0-.073-.009z" class="cls-3" transform="translate(-57.981 -56.962)"/>
            <ellipse id="Ellipse_873" cx="6.927" cy="9.508" fill="#e5bda3" rx="6.927" ry="9.508" transform="translate(20.292 6.78)"/>
            <ellipse id="Ellipse_874" cx="6.368" cy="8.741" fill="#ffd39f" rx="6.368" ry="8.741" transform="translate(20.851 6.78)"/>
            <path id="Path_12739" d="M33.355 51.8c-3.931 0-7.13-4.357-7.13-9.712s3.2-9.712 7.13-9.712 7.13 4.357 7.13 9.712-3.199 9.712-7.13 9.712zm0-19.017c-3.708 0-6.723 4.174-6.723 9.305s3.016 9.305 6.723 9.305 6.723-4.174 6.723-9.305-3.016-9.304-6.723-9.304z" class="cls-3" transform="translate(-6.136 -25.801)"/>
            <path id="Path_12740" d="M22.968 29.59s2.034-7.409 6.644-7a10.364 10.364 0 0 0 7.507 7.782 11.93 11.93 0 0 0 .2-9.183c-1.64-4.606-6.791-5.884-10.688-4.08s-6.244 7.142-3.663 12.481z" class="cls-2" transform="translate(-2.676 -13.006)"/>
            <path id="Path_12741" d="M36.323 29.791a.2.2 0 0 1-.055-.008A10.662 10.662 0 0 1 28.648 22c-4.289-.222-6.26 6.792-6.28 6.864a.2.2 0 0 1-.379.035 10.158 10.158 0 0 1-.551-7.881 8.48 8.48 0 0 1 4.312-4.878 8.641 8.641 0 0 1 6.863-.174 7.245 7.245 0 0 1 4.1 4.37 12.023 12.023 0 0 1-.213 9.348.2.2 0 0 1-.178.106zm-7.879-8.2c.128 0 .257.005.389.017a.2.2 0 0 1 .183.169 10.238 10.238 0 0 0 7.2 7.573 12.027 12.027 0 0 0 .117-8.873 6.848 6.848 0 0 0-3.876-4.132 8.227 8.227 0 0 0-6.535.168 8.073 8.073 0 0 0-4.1 4.643 9.665 9.665 0 0 0 .315 7.085c.547-1.66 2.515-6.654 6.307-6.654z" class="cls-3" transform="translate(-1.881 -12.224)"/>
            <path id="Path_12742" d="M87.537 22.44c0 .5-.408 2.666-.91 2.666s-.91-2.164-.91-2.666a.911.911 0 1 1 1.821 0z" class="cls-8" transform="translate(-53.543 -17.156)"/>
            <path id="Path_12743" d="M85.832 24.514c-.8 0-1.114-2.674-1.114-2.87a1.114 1.114 0 1 1 2.227 0c0 .196-.311 2.87-1.113 2.87zm0-3.577a.708.708 0 0 0-.707.707 5.228 5.228 0 0 0 .713 2.464 5.371 5.371 0 0 0 .7-2.464.708.708 0 0 0-.706-.707z" class="cls-3" transform="translate(-52.747 -16.36)"/>
            <path id="Path_12744" d="M85.715 41.806c0-.5.408-2.666.91-2.666s.911 2.163.911 2.666a.911.911 0 1 1-1.821 0z" class="cls-8" transform="translate(-53.542 -31.19)"/>
            <path id="Path_12745" d="M85.832 42.124a1.115 1.115 0 0 1-1.114-1.114c0-.2.31-2.87 1.114-2.87s1.113 2.673 1.113 2.869a1.115 1.115 0 0 1-1.113 1.115zm-.005-3.578a5.371 5.371 0 0 0-.7 2.464.707.707 0 0 0 1.415 0 5.237 5.237 0 0 0-.713-2.464z" class="cls-3" transform="translate(-52.747 -30.394)"/>
            <path id="Path_12746" d="M92.864 36.479c-.5 0-2.666-.408-2.666-.91s2.164-.91 2.666-.91a.911.911 0 0 1 0 1.821z" class="cls-8" transform="translate(-57.114 -27.618)"/>
            <path id="Path_12747" d="M92.067 35.885c-.2 0-2.87-.31-2.87-1.114s2.674-1.114 2.87-1.114a1.114 1.114 0 1 1 0 2.227zm0-1.821a5.228 5.228 0 0 0-2.464.713 5.371 5.371 0 0 0 2.464.7.707.707 0 0 0 0-1.415z" class="cls-3" transform="translate(-56.317 -26.821)"/>
            <path id="Path_12748" d="M73.5 34.657c.5 0 2.666.408 2.666.91s-2.163.911-2.666.911a.911.911 0 0 1 0-1.821z" class="cls-8" transform="translate(-43.081 -27.617)"/>
            <path id="Path_12749" d="M72.7 35.884a1.114 1.114 0 0 1 0-2.227c.2 0 2.87.31 2.87 1.114s-2.67 1.113-2.87 1.113zm0-1.821a.707.707 0 1 0 0 1.415 5.227 5.227 0 0 0 2.464-.713 5.358 5.358 0 0 0-2.464-.702z" class="cls-3" transform="translate(-42.284 -26.82)"/>
            <path id="Path_12750" d="M92.481 26.929c-.355.355-2.174 1.6-2.529 1.242s.886-2.173 1.242-2.529a.91.91 0 0 1 1.288 1.288z" class="cls-8" transform="translate(-56.868 -20.221)"/>
            <path id="Path_12751" d="M89.361 27.634a.451.451 0 0 1-.332-.117c-.569-.569 1.1-2.678 1.242-2.817a1.114 1.114 0 0 1 1.575 1.575 6.124 6.124 0 0 1-2.485 1.359zm1.7-2.854a.7.7 0 0 0-.5.207c-.45.45-1.375 1.993-1.239 2.246.243.128 1.789-.8 2.239-1.246a.707.707 0 0 0-.5-1.208z" class="cls-3" transform="translate(-56.089 -19.423)"/>
            <path id="Path_12752" d="M76.7 40.133c.356-.356 2.174-1.6 2.53-1.241s-.886 2.173-1.242 2.529a.91.91 0 0 1-1.288-1.288z" class="cls-8" transform="translate(-46.147 -30.941)"/>
            <path id="Path_12753" d="M76.546 41.089a1.113 1.113 0 0 1-.788-1.9 7.713 7.713 0 0 1 1.308-.92c1.045-.6 1.361-.469 1.509-.321.569.569-1.1 2.678-1.242 2.817a1.11 1.11 0 0 1-.788.326zm-.5-1.613a.707.707 0 1 0 1 1c.449-.45 1.375-1.994 1.239-2.246-.244-.129-1.789.8-2.239 1.246z" class="cls-3" transform="translate(-45.347 -30.141)"/>
            <path id="Path_12754" d="M91.192 41.421c-.355-.356-1.6-2.174-1.241-2.529s2.173.886 2.529 1.242a.91.91 0 0 1-1.288 1.288z" class="cls-8" transform="translate(-56.867 -30.941)"/>
            <path id="Path_12755" d="M91.056 41.115a1.106 1.106 0 0 1-.788-.325c-.139-.139-1.81-2.248-1.242-2.817s2.678 1.1 2.817 1.242a1.114 1.114 0 0 1-.787 1.9zm-1.677-2.864a.146.146 0 0 0-.068.014c-.129.245.8 1.789 1.246 2.239a.724.724 0 0 0 1 0 .708.708 0 0 0 0-1 6.081 6.081 0 0 0-2.178-1.253z" class="cls-3" transform="translate(-56.087 -30.167)"/>
            <path id="Path_12756" d="M77.987 25.642c.356.356 1.6 2.173 1.242 2.529s-2.173-.886-2.529-1.242a.91.91 0 1 1 1.288-1.288z" class="cls-8" transform="translate(-46.145 -20.221)"/>
            <path id="Path_12757" d="M78.246 27.641a2.65 2.65 0 0 1-1.18-.445 7.713 7.713 0 0 1-1.308-.92 1.114 1.114 0 1 1 1.575-1.576c.139.139 1.81 2.249 1.241 2.817a.431.431 0 0 1-.328.124zm-1.7-2.86a.707.707 0 0 0-.5 1.207c.45.45 1.991 1.375 2.246 1.239.13-.245-.8-1.789-1.246-2.239a.705.705 0 0 0-.5-.207z" class="cls-3" transform="translate(-45.348 -19.423)"/>
            <circle id="Ellipse_875" cx="1.171" cy="1.171" r="1.171" fill="#00a7ff" transform="translate(31.913 6.78)"/>
            <path id="Path_12758" d="M84.812 35.121a1.374 1.374 0 1 1 1.374-1.374 1.374 1.374 0 0 1-1.374 1.374zm0-2.341a.967.967 0 1 0 .968.968.967.967 0 0 0-.968-.968z" class="cls-3" transform="translate(-51.727 -25.798)"/>
        </g>
    </g>
</svg>
