<svg xmlns="http://www.w3.org/2000/svg" width="50" height="50" viewBox="0 0 50 50">
    <path data-name="Rectangle 73077" style="fill:#fff" d="M0 0h50v50H0z"/>
    <g data-name="hotel (3)">
        <g data-name="Group 145751">
            <g data-name="Group 145726">
                <path data-name="Path 147365" d="M74.96 95.714v11.592a.806.806 0 0 1-.819.793h-3.134a.806.806 0 0 1-.819-.793V95.714a.806.806 0 0 0-.819-.793H56.97a.806.806 0 0 0-.819.793v31a.806.806 0 0 0 .819.793h31.208a.806.806 0 0 0 .819-.793v-31a.806.806 0 0 0-.819-.793h-12.4a.806.806 0 0 0-.818.793z" transform="translate(-47.574 -82.989)" style="fill:#d3e1f5"/>
            </g>
            <g data-name="Group 145727">
                <path data-name="Path 147366" d="M279.145 107.306V95.714a.806.806 0 0 1 .819-.793h-2.523a.806.806 0 0 0-.819.793v11.592a.806.806 0 0 1-.819.793h2.523a.806.806 0 0 0 .819-.793z" transform="translate(-249.236 -82.989)" style="fill:#b3ceec"/>
            </g>
            <g data-name="Group 145728">
                <path data-name="Path 147367" d="M58.674 126.712v-31a.806.806 0 0 1 .819-.793H56.97a.806.806 0 0 0-.819.793v31a.806.806 0 0 0 .819.793h2.523a.806.806 0 0 1-.819-.793z" transform="translate(-47.574 -82.989)" style="fill:#b3ceec"/>
            </g>
            <g data-name="Group 145729">
                <path data-name="Path 147368" d="M90.684 133.108h-2.206a.4.4 0 0 1-.41-.4v-3.2a.4.4 0 0 1 .41-.4h2.206a.4.4 0 0 1 .41.4v3.2a.4.4 0 0 1-.41.4z" transform="translate(-76.877 -114.468)" style="fill:#5f99d7"/>
            </g>
            <g data-name="Group 145730">
                <path data-name="Path 147369" d="M159.346 133.108h-2.206a.4.4 0 0 1-.41-.4v-3.2a.4.4 0 0 1 .41-.4h2.206a.4.4 0 0 1 .41.4v3.2a.4.4 0 0 1-.41.4z" transform="translate(-139.916 -114.468)" style="fill:#5f99d7"/>
            </g>
            <g data-name="Group 145731">
                <path data-name="Path 147370" d="M90.684 214.708h-2.206a.4.4 0 0 1-.41-.4v-3.2a.4.4 0 0 1 .41-.4h2.206a.4.4 0 0 1 .41.4v3.2a.4.4 0 0 1-.41.4z" transform="translate(-76.877 -189.597)" style="fill:#5f99d7"/>
            </g>
            <g data-name="Group 145732">
                <path data-name="Path 147371" d="M159.346 214.708h-2.206a.4.4 0 0 1-.41-.4v-3.2a.4.4 0 0 1 .41-.4h2.206a.4.4 0 0 1 .41.4v3.2a.4.4 0 0 1-.41.4z" transform="translate(-139.916 -189.597)" style="fill:#5f99d7"/>
            </g>
            <g data-name="Group 145733">
                <path data-name="Path 147372" d="M388.74 133.108h2.206a.4.4 0 0 0 .41-.4v-3.2a.4.4 0 0 0-.41-.4h-2.206a.4.4 0 0 0-.41.4v3.2a.4.4 0 0 0 .41.4z" transform="translate(-352.547 -114.468)" style="fill:#5f99d7"/>
            </g>
            <g data-name="Group 145734">
                <path data-name="Path 147373" d="M320.078 133.108h2.206a.4.4 0 0 0 .41-.4v-3.2a.4.4 0 0 0-.41-.4h-2.206a.4.4 0 0 0-.41.4v3.2a.4.4 0 0 0 .41.4z" transform="translate(-289.508 -114.468)" style="fill:#5f99d7"/>
            </g>
            <g data-name="Group 145735">
                <path data-name="Path 147374" d="M388.74 214.708h2.206a.4.4 0 0 0 .41-.4v-3.2a.4.4 0 0 0-.41-.4h-2.206a.4.4 0 0 0-.41.4v3.2a.4.4 0 0 0 .41.4z" transform="translate(-352.547 -189.597)" style="fill:#5f99d7"/>
            </g>
            <g data-name="Group 145736">
                <path data-name="Path 147375" d="M320.078 214.708h2.206a.4.4 0 0 0 .41-.4v-3.2a.4.4 0 0 0-.41-.4h-2.206a.4.4 0 0 0-.41.4v3.2a.4.4 0 0 0 .41.4z" transform="translate(-289.508 -189.597)" style="fill:#5f99d7"/>
            </g>
            <g data-name="Group 145737">
                <path data-name="Path 147376" d="m58.429 11.406-1.044.531a.287.287 0 0 1-.419-.294l.2-1.126a.274.274 0 0 0-.083-.247l-.845-.8A.277.277 0 0 1 56.4 9l1.167-.164a.288.288 0 0 0 .217-.153l.516-1.028a.293.293 0 0 1 .517 0l.522 1.024a.288.288 0 0 0 .217.153L60.728 9a.277.277 0 0 1 .16.476l-.845.8a.274.274 0 0 0-.083.247l.2 1.126a.287.287 0 0 1-.419.294l-1.041-.537a.3.3 0 0 0-.271 0z" transform="translate(-47.573 -2.499)" style="stroke:#333a60;fill:#ffd772"/>
            </g>
            <g data-name="Group 145738">
                <path data-name="Path 147377" d="m143.959 11.407-1.044.531a.287.287 0 0 1-.419-.294l.2-1.126a.274.274 0 0 0-.083-.247l-.845-.8a.277.277 0 0 1 .16-.476l1.167-.164a.288.288 0 0 0 .217-.153l.522-1.024a.293.293 0 0 1 .517 0l.522 1.024a.288.288 0 0 0 .217.153l1.168.169a.277.277 0 0 1 .16.476l-.845.8a.274.274 0 0 0-.083.247l.2 1.126a.287.287 0 0 1-.419.294l-1.044-.531a.3.3 0 0 0-.268-.005z" transform="translate(-126.098 -2.5)" style="stroke:#333a60;fill:#ffd772"/>
            </g>
            <g data-name="Group 145739">
                <path data-name="Path 147378" d="m229.491 11.406-1.044.531a.287.287 0 0 1-.419-.294l.2-1.126a.274.274 0 0 0-.083-.247l-.845-.8a.277.277 0 0 1 .16-.47l1.167-.164a.288.288 0 0 0 .217-.153l.522-1.024a.293.293 0 0 1 .517 0l.522 1.024a.288.288 0 0 0 .217.153L231.79 9a.277.277 0 0 1 .16.476l-.845.8a.274.274 0 0 0-.083.247l.2 1.126a.287.287 0 0 1-.419.294l-1.044-.531a.3.3 0 0 0-.268-.006z" transform="translate(-204.625 -2.499)" style="stroke:#333a60;fill:#ffd772"/>
            </g>
            <g data-name="Group 145740">
                <path data-name="Path 147379" d="m315.022 11.407-1.044.531a.287.287 0 0 1-.419-.294l.2-1.126a.274.274 0 0 0-.083-.247l-.845-.8a.277.277 0 0 1 .16-.476l1.167-.164a.288.288 0 0 0 .217-.153l.522-1.024a.293.293 0 0 1 .517 0l.522 1.024a.288.288 0 0 0 .217.153l1.168.169a.277.277 0 0 1 .16.476l-.845.8a.274.274 0 0 0-.083.247l.2 1.126a.287.287 0 0 1-.419.294l-1.044-.531a.3.3 0 0 0-.268-.005z" transform="translate(-283.151 -2.5)" style="stroke:#333a60;fill:#ffd772"/>
            </g>
            <g data-name="Group 145741">
                <path data-name="Path 147380" d="m400.553 11.407-1.044.531a.287.287 0 0 1-.419-.294l.2-1.126a.274.274 0 0 0-.083-.247l-.845-.8a.277.277 0 0 1 .16-.476l1.167-.164a.288.288 0 0 0 .217-.153l.522-1.024a.293.293 0 0 1 .517 0l.522 1.024a.288.288 0 0 0 .217.153l1.168.169a.277.277 0 0 1 .16.476l-.845.8a.274.274 0 0 0-.083.247l.2 1.126a.287.287 0 0 1-.419.294l-1.044-.531a.3.3 0 0 0-.268-.005z" transform="translate(-361.676 -2.5)" style="stroke:#333a60;fill:#ffd772"/>
            </g>
            <g data-name="Group 145744">
                <g data-name="Group 145743">
                    <g data-name="Group 145742">
                        <path data-name="Path 147381" d="M68.14 301.37H33.007a.806.806 0 0 1-.819-.793v-7.713a.806.806 0 0 1 .819-.793H68.14a.806.806 0 0 1 .819.793v7.713a.806.806 0 0 1-.819.793z" transform="translate(-25.574 -264.505)" style="fill:#fcb577"/>
                    </g>
                </g>
            </g>
            <g data-name="Group 145746">
                <g data-name="Group 145745">
                    <path data-name="Path 147382" d="M34.665 300.577v-7.713a.806.806 0 0 1 .819-.793h-2.477a.806.806 0 0 0-.819.793v7.713a.806.806 0 0 0 .819.793h2.477a.806.806 0 0 1-.819-.793z" transform="translate(-25.574 -264.505)" style="fill:#fb9e72"/>
                </g>
            </g>
            <g data-name="Group 145747">
                <path data-name="Path 147383" d="M56.151 409.336H89v2.706H56.151z" transform="translate(-47.574 -372.472)" style="fill:#ffd772"/>
            </g>
            <g data-name="Group 145748">
                <path data-name="Path 147384" d="M56.151 409.336h2.523v2.706h-2.523z" transform="translate(-47.574 -372.472)" style="fill:#fdb440"/>
            </g>
            <g data-name="Group 145749">
                <path data-name="Path 147385" d="M217.023 409.336h6.494v7.652h-6.494z" transform="translate(-195.27 -372.472)" style="fill:#5f99d7"/>
            </g>
            <g data-name="Group 145750">
                <path data-name="Path 147386" d="M217.023 409.336h1.783v7.652h-1.783z" transform="translate(-195.27 -372.472)" style="fill:#3c87d0"/>
            </g>
        </g>
        <g data-name="Group 145752">
            <path data-name="Path 147387" d="M49.265 101.789a.6.6 0 0 0 .614-.595V88.809a.2.2 0 0 1 .2-.2h12.4a.2.2 0 0 1 .2.2V100.4a1.413 1.413 0 0 0 1.433 1.388h3.134a1.413 1.413 0 0 0 1.433-1.388V88.809a.2.2 0 0 1 .2-.2h12.4a.2.2 0 0 1 .2.2v4.242a.615.615 0 0 0 1.229 0v-4.242a1.413 1.413 0 0 0-1.433-1.388h-12.4a1.413 1.413 0 0 0-1.433 1.388V100.4a.2.2 0 0 1-.2.2h-3.121a.2.2 0 0 1-.2-.2V88.809a1.413 1.413 0 0 0-1.433-1.388h-12.4a1.413 1.413 0 0 0-1.433 1.388v12.385a.6.6 0 0 0 .614.595z" transform="translate(-40.688 -76.083)" style="fill:#333a60"/>
            <path data-name="Path 147388" d="M84.823 122.6a1.009 1.009 0 0 0-1.024-.991h-2.206a1.009 1.009 0 0 0-1.024.991v3.2a1.009 1.009 0 0 0 1.024.991H83.8a1.009 1.009 0 0 0 1.024-.991v-3.2zm-1.229 3.005H81.8V122.8h1.8v2.807z" transform="translate(-69.992 -107.562)" style="fill:#333a60"/>
            <path data-name="Path 147389" d="M153.484 122.6a1.009 1.009 0 0 0-1.024-.991h-2.206a1.009 1.009 0 0 0-1.024.991v3.2a1.009 1.009 0 0 0 1.024.991h2.206a1.009 1.009 0 0 0 1.024-.991zm-1.229 3.005h-1.8V122.8h1.8z" transform="translate(-133.03 -107.562)" style="fill:#333a60"/>
            <path data-name="Path 147390" d="M83.8 203.211h-2.207a1.009 1.009 0 0 0-1.024.991v3.2a1.009 1.009 0 0 0 1.024.991H83.8a1.009 1.009 0 0 0 1.024-.991v-3.2a1.009 1.009 0 0 0-1.024-.991zm-.2 4h-1.8V204.4h1.8v2.807z" transform="translate(-69.992 -182.691)" style="fill:#333a60"/>
            <path data-name="Path 147391" d="M152.46 203.211h-2.206a1.009 1.009 0 0 0-1.024.991v3.2a1.009 1.009 0 0 0 1.024.991h2.206a1.009 1.009 0 0 0 1.024-.991v-3.2a1.009 1.009 0 0 0-1.024-.991zm-.2 4h-1.8V204.4h1.8z" transform="translate(-133.03 -182.691)" style="fill:#333a60"/>
            <path data-name="Path 147392" d="M385.084 122.6a1.009 1.009 0 0 0-1.024-.991h-2.206a1.009 1.009 0 0 0-1.024.991v3.2a1.009 1.009 0 0 0 1.024.991h2.206a1.009 1.009 0 0 0 1.024-.991zm-1.229 3.005h-1.8V122.8h1.8z" transform="translate(-345.661 -107.562)" style="fill:#333a60"/>
            <path data-name="Path 147393" d="M316.422 122.6a1.009 1.009 0 0 0-1.024-.991h-2.206a1.009 1.009 0 0 0-1.024.991v3.2a1.009 1.009 0 0 0 1.024.991h2.208a1.009 1.009 0 0 0 1.024-.991zm-1.229 3.005h-1.8V122.8h1.8z" transform="translate(-282.622 -107.562)" style="fill:#333a60"/>
            <path data-name="Path 147394" d="M384.06 203.211h-2.206a1.009 1.009 0 0 0-1.024.991v3.2a1.009 1.009 0 0 0 1.024.991h2.206a1.009 1.009 0 0 0 1.024-.991v-3.2a1.009 1.009 0 0 0-1.024-.991zm-.2 4h-1.8V204.4h1.8z" transform="translate(-345.661 -182.691)" style="fill:#333a60"/>
            <path data-name="Path 147395" d="M315.4 203.211h-2.206a1.009 1.009 0 0 0-1.024.991v3.2a1.009 1.009 0 0 0 1.024.991h2.206a1.009 1.009 0 0 0 1.024-.991v-3.2a1.009 1.009 0 0 0-1.024-.991zm-.2 4h-1.8V204.4h1.8z" transform="translate(-282.622 -182.691)" style="fill:#333a60"/>
            <path data-name="Path 147401" d="M61.255 191.566h-.529v-7.415a.615.615 0 0 0-1.229 0v7.415H26.121a1.413 1.413 0 0 0-1.433 1.388v7.713a1.413 1.413 0 0 0 1.433 1.388h.529v6.264a1.413 1.413 0 0 0 1.433 1.388h31.209a1.413 1.413 0 0 0 1.433-1.388v-6.264h.529a1.413 1.413 0 0 0 1.433-1.388v-7.713a1.413 1.413 0 0 0-1.432-1.388zm-21.428 12H27.879v-1.516h11.948zm-11.947 4.748v-3.554h11.947v3.757H28.084a.2.2 0 0 1-.205-.198zm13.176.2v-6.463h5.266v6.463zm18.237 0H47.549v-3.754H51.8a.6.6 0 1 0 0-1.189h-4.251v-1.516H59.5v1.516h-4.794a.6.6 0 1 0 0 1.189H59.5v3.559a.2.2 0 0 1-.208.198zm2.167-7.85a.2.2 0 0 1-.2.2H26.121a.2.2 0 0 1-.2-.2v-7.713a.2.2 0 0 1 .2-.2h35.134a.2.2 0 0 1 .2.2z" transform="translate(-18.688 -164.595)" style="fill:#333a60"/>
            <path data-name="Path 147402" d="M393.722 318.026h-1.1v-4.15a.615.615 0 0 0-1.229 0v4.741a.6.6 0 0 0 .51.586 4.652 4.652 0 0 0 .625.013h1.2a.595.595 0 1 0 0-1.189z" transform="translate(-355.357 -284.037)" style="fill:#333a60"/>
            <path data-name="Path 147403" d="M90 313.285a.6.6 0 0 0-.614.595v1.7h-2.165v-1.7a.615.615 0 0 0-1.229 0v4.745a.615.615 0 0 0 1.229 0v-1.859h2.163v1.859a.615.615 0 0 0 1.229 0v-4.745a.6.6 0 0 0-.613-.595z" transform="translate(-74.971 -284.037)" style="fill:#333a60"/>
            <path data-name="Path 147404" d="M325.9 315.02a.6.6 0 1 0 0-1.189h-2.046a.6.6 0 0 0-.614.595v4.7a.6.6 0 0 0 .614.595h2.046a.6.6 0 1 0 0-1.189h-1.432v-1.161h1.281a.6.6 0 1 0 0-1.19h-1.281v-1.161z" transform="translate(-292.785 -284.54)" style="fill:#333a60"/>
            <path data-name="Path 147405" d="M254.91 313.285h-2.71a.6.6 0 1 0 0 1.189h.734v4.15a.615.615 0 0 0 1.229 0v-4.15h.745a.6.6 0 1 0 0-1.189z" transform="translate(-227.005 -284.037)" style="fill:#333a60"/>
            <path data-name="Path 147406" d="M164 313.285a2.969 2.969 0 1 0 3.065 2.967 3.021 3.021 0 0 0-3.065-2.967zm0 4.745a1.779 1.779 0 1 1 1.836-1.778A1.81 1.81 0 0 1 164 318.03z" transform="translate(-143.775 -284.037)" style="fill:#333a60"/>
        </g>
    </g>
</svg>
