<svg xmlns="http://www.w3.org/2000/svg" width="50" height="50" viewBox="0 0 50 50">
    <path data-name="Rectangle 73076" style="fill:#fff" d="M0 0h50v50H0z"/>
    <g data-name="restaurant (3)" transform="translate(6 4)">
        <circle data-name="Ellipse 3041" cx="18.762" cy="18.762" r="18.762" transform="translate(.739 .738)" style="fill:#fddeb0"/>
        <circle data-name="Ellipse 3042" cx="12.35" cy="12.35" r="12.35" transform="translate(7.151 7.151)" style="fill:#fdb441"/>
        <g data-name="Group 145759">
            <path data-name="Path 147435" d="M332.888 187.914a3.248 3.248 0 1 1-6.276 1.681l-.217-.809 3.137-.841 3.138-.842z" transform="translate(-301.079 -171.645)" style="fill:#e6e6e6"/>
            <path data-name="Path 147436" d="M99.609 74.941c2.36.632 3.434 4.272 2.4 8.129s-3.368 4.92-5.727 4.288-3.849-2.719-2.815-6.577 3.784-6.472 6.142-5.84z" transform="translate(-87.089 -68.663)" style="fill:#e6e6e6"/>
        </g>
        <g data-name="Group 145760">
            <path data-name="Path 147437" d="M393.12 348.538a1.66 1.66 0 0 1-3.206.859l-2.789-10.408a1.66 1.66 0 1 1 3.206-.858z" transform="translate(-356.738 -309.064)" style="fill:#f24c8f"/>
            <path data-name="Path 147438" d="M47.253 336.955a1.659 1.659 0 0 1 1.173 2.033L45.639 349.4a1.66 1.66 0 0 1-3.207-.859l2.789-10.407a1.66 1.66 0 0 1 2.032-1.179z" transform="translate(-40.525 -309.063)" style="fill:#f24c8f"/>
        </g>
        <g data-name="Group 145761">
            <path data-name="Path 147439" d="M215.331 79.386a.742.742 0 0 0 .16-.018 11.788 11.788 0 0 1 4.5-.107.738.738 0 0 0 .249-1.455 13.272 13.272 0 0 0-5.069.121.738.738 0 0 0 .159 1.459z" transform="translate(-198.514 -71.206)" style="fill:#333a60"/>
            <path data-name="Path 147440" d="M145.182 316.778a11.535 11.535 0 0 1-8.211 3.4 11.659 11.659 0 0 1-9.386-4.774.738.738 0 1 0-1.193.87 13.14 13.14 0 0 0 10.578 5.38 13 13 0 0 0 9.255-3.833.738.738 0 1 0-1.044-1.044z" transform="translate(-117.471 -289.068)" style="fill:#333a60"/>
            <path data-name="Path 147441" d="M54.961 31.367A19.5 19.5 0 1 0 19.987 19.5a19.344 19.344 0 0 0 3.505 11.155l-2.312 8.627a2.4 2.4 0 0 0 1.7 2.937 2.412 2.412 0 0 0 .625.083 2.4 2.4 0 0 0 2.313-1.778l1.543-5.757a19.5 19.5 0 0 0 23.671.452l1.422 5.305a2.4 2.4 0 0 0 2.308 1.776 2.412 2.412 0 0 0 .625-.083 2.4 2.4 0 0 0 1.7-2.937zm-30.574 8.775a.921.921 0 1 1-1.78-.477L25.4 29.257a.923.923 0 0 1 .889-.683.928.928 0 0 1 .24.032.921.921 0 0 1 .652 1.129zm15.1-2.619A17.987 17.987 0 0 1 27.776 33.2l.826-3.084a2.4 2.4 0 0 0-1.013-2.633l2.124-7.927a5.217 5.217 0 0 0 .707.049 4.508 4.508 0 0 0 2.528-.754A7.056 7.056 0 0 0 35.62 14.6c1.157-4.317-.127-8.285-2.922-9.034s-5.891 2.046-7.048 6.362a7.057 7.057 0 0 0 .188 5.018 4.6 4.6 0 0 0 2.449 2.227L26.163 27.1a2.393 2.393 0 0 0-2.152 1.643 18.023 18.023 0 1 1 30.456.783l-.174-.651A2.4 2.4 0 0 0 52.1 27.1l-1.714-6.4a3.988 3.988 0 0 0 2.124-4.626l-2.36-8.807a.738.738 0 1 0-1.426.382l1.952 7.284-1.712.459-1.953-7.28a.738.738 0 1 0-1.426.382l1.952 7.284-1.712.459-1.952-7.284a.738.738 0 1 0-1.426.382l2.36 8.807a3.994 3.994 0 0 0 3.851 2.958c.1 0 .2 0 .3-.013l1.715 6.4a2.4 2.4 0 0 0-1.013 2.633l.954 3.562a18.041 18.041 0 0 1-11.127 3.841zm-10.116-19.54c-2.295-.615-3.109-2.63-2.294-5.673.829-3.093 2.889-5.387 4.707-5.387a2.046 2.046 0 0 1 .532.069c1.929.517 2.789 3.826 1.878 7.225a5.667 5.667 0 0 1-2.062 3.4 3.27 3.27 0 0 1-2.761.366zm19.261-.969 2.425-.65.026.1a2.511 2.511 0 1 1-4.85 1.3l-.026-.1zm6.932 23.351a.921.921 0 0 1-1.688-.222l-2.789-10.409a.921.921 0 1 1 1.78-.477l2.789 10.408a.915.915 0 0 1-.093.699z" transform="translate(-19.987)" style="fill:#333a60"/>
        </g>
    </g>
</svg>
